<?xml version="1.0" encoding="UTF-8" standalone="no"?>
<!-- Created with Inkscape (http://www.inkscape.org/) -->

<svg
   xmlns:dc="http://purl.org/dc/elements/1.1/"
   xmlns:cc="http://creativecommons.org/ns#"
   xmlns:rdf="http://www.w3.org/1999/02/22-rdf-syntax-ns#"
   xmlns:svg="http://www.w3.org/2000/svg"
   xmlns="http://www.w3.org/2000/svg"
   xmlns:sodipodi="http://sodipodi.sourceforge.net/DTD/sodipodi-0.dtd"
   xmlns:inkscape="http://www.inkscape.org/namespaces/inkscape"
   width="232.57233"
   height="89.637794"
   id="svg2"
   version="1.1"
   inkscape:version="0.48.4 r9939"
   sodipodi:docname="New document 1">
  <defs
     id="defs4" />
  <sodipodi:namedview
     id="base"
     pagecolor="#ffffff"
     bordercolor="#666666"
     borderopacity="1.0"
     inkscape:pageopacity="0.0"
     inkscape:pageshadow="2"
     inkscape:zoom="1.4699702"
     inkscape:cx="130.62629"
     inkscape:cy="67.031914"
     inkscape:document-units="px"
     inkscape:current-layer="layer1"
     showgrid="false"
     fit-margin-top="0"
     fit-margin-left="0"
     fit-margin-right="0"
     fit-margin-bottom="0"
     inkscape:window-width="1329"
     inkscape:window-height="744"
     inkscape:window-x="37"
     inkscape:window-y="24"
     inkscape:window-maximized="1" />
  <metadata
     id="metadata7">
    <rdf:RDF>
      <cc:Work
         rdf:about="">
        <dc:format>image/svg+xml</dc:format>
        <dc:type
           rdf:resource="http://purl.org/dc/dcmitype/StillImage" />
        <dc:title></dc:title>
      </cc:Work>
    </rdf:RDF>
  </metadata>
  <g
     inkscape:label="Layer 1"
     inkscape:groupmode="layer"
     id="layer1"
     transform="translate(-143.14835,-315.34697)">
    <path
       style="fill:#fe0b0b"
       d="m 336.36886,398.63886 c -0.32856,-0.32797 -1.96112,-3.54729 -3.62789,-7.15404 -1.69793,-3.67417 -5.89499,-10.03342 -9.54489,-14.46212 -7.87105,-9.55055 -8.7664,-11.27978 -7.39677,-14.28578 1.43796,-3.15598 5.42443,-4.91677 13.81965,-6.104 8.19945,-1.15956 7.96486,-1.95378 -1.02498,-3.47012 -4.9115,-0.82843 -7.13559,-1.82964 -12.09322,-5.44393 -3.34117,-2.43586 -6.89911,-4.69043 -7.90653,-5.01017 -5.32298,-1.68945 -13.07792,3.37257 -15.25016,9.95451 -1.15881,3.51122 -2.3494,4.14749 -3.08006,1.646 -3.40284,-11.64988 -5.12183,-19.59871 -4.39542,-20.32512 0.47315,-0.47315 13.45886,-4.25657 28.85714,-8.40762 21.01093,-5.66408 28.26089,-7.28984 29.05497,-6.51541 1.15617,1.12756 19.33568,67.99037 19.33568,71.11511 0,2.0707 -0.46199,2.24825 -17.83361,6.85404 -4.57407,1.21274 -8.58533,1.93663 -8.91391,1.60865 z"
       id="path2996"
       inkscape:connector-curvature="0" />
    <g
       style="font-size:36.2556076px;font-style:normal;font-weight:normal;line-height:125%;letter-spacing:0px;word-spacing:0px;fill:#4d4d4d;fill-opacity:1;stroke:none;font-family:Sans"
       id="text2998">
      <path
         d="m 153.51837,346.52399 3.576,0 0,11.17055 11.86096,-11.17055 4.60276,0 -13.11787,12.32124 14.05613,14.10924 -4.70898,0 -12.693,-12.72841 0,12.72841 -3.576,0 0,-26.43048"
         style=""
         id="path3022" />
      <path
         d="m 186.05636,348.94929 c -2.59644,2e-5 -4.66178,0.96778 -6.19602,2.90328 -1.52246,1.93554 -2.28369,4.57328 -2.28368,7.91321 -1e-5,3.32816 0.76122,5.96 2.28368,7.89551 1.53424,1.93552 3.59958,2.90328 6.19602,2.90328 2.59642,0 4.64996,-0.96776 6.16063,-2.90328 1.52243,-1.93551 2.28365,-4.56735 2.28367,-7.89551 -2e-5,-3.33993 -0.76124,-5.97767 -2.28367,-7.91321 -1.51067,-1.9355 -3.56421,-2.90326 -6.16063,-2.90328 m 0,-2.90328 c 3.7058,3e-5 6.66809,1.24513 8.88688,3.73532 2.21874,2.47843 3.32812,5.80658 3.32815,9.98445 -3e-5,4.1661 -1.10941,7.49425 -3.32815,9.98446 -2.21879,2.47841 -5.18108,3.71761 -8.88688,3.71761 -3.71762,0 -6.69171,-1.2392 -8.92227,-3.71761 -2.21877,-2.47841 -3.32816,-5.80656 -3.32815,-9.98446 -1e-5,-4.17787 1.10938,-7.50602 3.32815,-9.98445 2.23056,-2.49019 5.20465,-3.73529 8.92227,-3.73532"
         style=""
         id="path3024" />
      <path
         d="m 207.44151,349.46268 0,9.93134 4.49655,0 c 1.66406,10e-6 2.95047,-0.43076 3.85923,-1.29231 0.90874,-0.86153 1.36311,-2.08893 1.36313,-3.68221 -2e-5,-1.58145 -0.45439,-2.80295 -1.36313,-3.66451 -0.90876,-0.86152 -2.19517,-1.29229 -3.85923,-1.29231 l -4.49655,0 m -3.57599,-2.93869 8.07254,0 c 2.96227,2e-5 5.19874,0.67274 6.70941,2.01813 1.52243,1.33365 2.28365,3.29277 2.28368,5.87738 -3e-5,2.60824 -0.76125,4.57917 -2.28368,5.91278 -1.51067,1.33363 -3.74714,2.00044 -6.70941,2.00043 l -4.49655,0 0,10.62176 -3.57599,0 0,-26.43048"
         style=""
         id="path3026" />
      <path
         d="m 238.28002,360.56241 c 0.76711,0.25966 1.51063,0.81435 2.23057,1.66408 0.7317,0.84975 1.46342,2.01814 2.19516,3.50518 l 3.6291,7.2228 -3.84154,0 -3.38126,-6.78023 c -0.87336,-1.77028 -1.7231,-2.94457 -2.54922,-3.52288 -0.81435,-0.57828 -1.92963,-0.86743 -3.34585,-0.86744 l -3.89465,0 0,11.17055 -3.57599,0 0,-26.43048 8.07254,0 c 3.02128,2e-5 5.27545,0.63143 6.76252,1.89421 1.48702,1.26283 2.23055,3.16885 2.23057,5.71805 -2e-5,1.66409 -0.38949,3.04492 -1.1684,4.14249 -0.76714,1.09759 -1.88833,1.85882 -3.36355,2.28367 m -8.95769,-11.09973 0,9.38255 4.49655,0 c 1.72307,10e-6 3.02128,-0.39535 3.89464,-1.1861 0.88513,-0.80251 1.32771,-1.97681 1.32772,-3.52288 -10e-6,-1.54604 -0.44259,-2.70853 -1.32772,-3.48748 -0.87336,-0.79071 -2.17157,-1.18607 -3.89464,-1.18609 l -4.49655,0"
         style=""
         id="path3028" />
      <path
         d="m 258.30203,350.04687 -4.8506,13.15328 9.71891,0 -4.86831,-13.15328 m -2.01813,-3.52288 4.05397,0 10.07297,26.43048 -3.71762,0 -2.40759,-6.78023 -11.91408,0 -2.4076,6.78023 -3.77072,0 10.09067,-26.43048"
         style=""
         id="path3030" />
      <path
         d="m 274.25238,346.52399 3.57599,0 0,23.42098 12.87004,0 0,3.0095 -16.44603,0 0,-26.43048"
         style=""
         id="path3032" />
    </g>
    <g
       style="font-size:31.21867561px;font-style:normal;font-weight:normal;line-height:125%;letter-spacing:0px;word-spacing:0px;fill:#4d4d4d;fill-opacity:1;stroke:none;font-family:Sans"
       id="text3002">
      <path
         d="m 152.31512,377.36829 7.46931,0 5.18279,12.17956 5.21327,-12.17956 7.45407,0 0,22.75854 -5.54863,0 0,-16.64589 -5.24376,12.27101 -3.71942,0 -5.24376,-12.27101 0,16.64589 -5.56387,0 0,-22.75854"
         style="font-weight:bold;fill:#4d4d4d;-inkscape-font-specification:Sans Bold"
         id="path3007" />
      <path
         d="m 183.41185,377.36829 15.83799,0 0,4.43586 -9.96925,0 0,4.23769 9.37475,0 0,4.43586 -9.37475,0 0,5.21327 10.3046,0 0,4.43586 -16.17334,0 0,-22.75854"
         style="font-weight:bold;fill:#4d4d4d;-inkscape-font-specification:Sans Bold"
         id="path3009" />
      <path
         d="m 213.09093,387.45949 c 1.22963,10e-6 2.10867,-0.22864 2.63712,-0.68596 0.53859,-0.45729 0.80789,-1.2093 0.80791,-2.25604 -2e-5,-1.03654 -0.26932,-1.77839 -0.80791,-2.22555 -0.52845,-0.44712 -1.40749,-0.67069 -2.63712,-0.67071 l -2.46945,0 0,5.83826 2.46945,0 m -2.46945,4.05477 0,8.61257 -5.86874,0 0,-22.75854 8.96317,0 c 2.99787,3e-5 5.19293,0.50306 6.58519,1.50911 1.40238,1.00609 2.10358,2.59649 2.1036,4.77121 -2e-5,1.50404 -0.36586,2.73877 -1.09753,3.70417 -0.72154,0.96544 -1.81399,1.6768 -3.27735,2.13409 0.80281,0.18293 1.51925,0.59959 2.14933,1.24997 0.64021,0.64023 1.28552,1.61582 1.93593,2.92675 l 3.18589,6.46324 -6.24984,0 -2.77431,-5.65534 c -0.55894,-1.13817 -1.12803,-1.91559 -1.70727,-2.33225 -0.56911,-0.41665 -1.33128,-0.62497 -2.28653,-0.62498 l -1.66154,0"
         style="font-weight:bold;fill:#4d4d4d;-inkscape-font-specification:Sans Bold"
         id="path3011" />
      <path
         d="m 234.64523,381.80415 0,13.88682 2.1036,0 c 2.3983,1e-5 4.22751,-0.59449 5.48766,-1.78348 1.27027,-1.18899 1.90542,-2.91658 1.90543,-5.18279 -1e-5,-2.25603 -0.63008,-3.97346 -1.89019,-5.1523 -1.26014,-1.17882 -3.09444,-1.76823 -5.5029,-1.76825 l -2.1036,0 m -5.86875,-4.43586 6.18886,0 c 3.45518,3e-5 6.02625,0.249 7.71321,0.74694 1.69709,0.48781 3.1503,1.32112 4.35964,2.49993 1.06702,1.02641 1.85968,2.21032 2.37798,3.55173 0.51826,1.34144 0.7774,2.86071 0.77742,4.55781 -2e-5,1.71744 -0.25916,3.25195 -0.77742,4.60353 -0.5183,1.34144 -1.31096,2.52535 -2.37798,3.55174 -1.2195,1.17883 -2.68288,2.01722 -4.39013,2.51517 -1.70728,0.4878 -4.26819,0.73169 -7.68272,0.73169 l -6.18886,0 0,-22.75854"
         style="font-weight:bold;fill:#4d4d4d;-inkscape-font-specification:Sans Bold"
         id="path3013" />
      <path
         d="m 254.69042,377.36829 15.83799,0 0,4.43586 -9.96924,0 0,4.23769 9.37475,0 0,4.43586 -9.37475,0 0,5.21327 10.3046,0 0,4.43586 -16.17335,0 0,-22.75854"
         style="font-weight:bold;fill:#4d4d4d;-inkscape-font-specification:Sans Bold"
         id="path3015" />
      <path
         d="m 276.03131,377.36829 5.86875,0 0,8.30771 8.46014,-8.30771 6.81384,0 -10.96007,10.77715 12.08809,11.98139 -7.34737,0 -9.05463,-8.96317 0,8.96317 -5.86875,0 0,-22.75854"
         style="font-weight:bold;fill:#4d4d4d;-inkscape-font-specification:Sans Bold"
         id="path3017" />
      <path
         d="m 314.04859,395.9806 -9.17658,0 -1.44814,4.14623 -5.89923,0 8.42965,-22.75854 6.99677,0 8.42965,22.75854 -5.89923,0 -1.43289,-4.14623 m -7.71321,-4.22245 6.23459,0 -3.10967,-9.05463 -3.12492,9.05463"
         style="font-weight:bold;fill:#4d4d4d;-inkscape-font-specification:Sans Bold"
         id="path3019" />
    </g>
  </g>
</svg>
